<svg aria-hidden="true" style="position: absolute; width: 0; height: 0; overflow: hidden;" version="1.1" xmlns="http://www.w3.org/2000/svg" xmlns:xlink="http://www.w3.org/1999/xlink">
<defs>
<symbol id="icon-location" viewBox="0 0 33 33">
<path d="M16.5 0c-5.695 0-10.313 4.617-10.313 10.313 0 10.313 10.313 22.688 10.313 22.688s10.313-12.375 10.313-22.688c0-5.695-4.617-10.313-10.313-10.313zM16.5 16.5c-3.417 0-6.188-2.77-6.188-6.188s2.77-6.188 6.188-6.188 6.188 2.77 6.188 6.188-2.77 6.188-6.188 6.188z"></path>
</symbol>
<symbol id="icon-database" viewBox="0 0 33 33">
<path d="M16.5 0c-9.113 0-16.5 2.309-16.5 5.156v4.125c0 2.848 7.387 5.156 16.5 5.156s16.5-2.309 16.5-5.156v-4.125c0-2.848-7.387-5.156-16.5-5.156z"></path>
<path d="M16.5 17.531c-9.113 0-16.5-2.309-16.5-5.156v6.188c0 2.848 7.387 5.156 16.5 5.156s16.5-2.309 16.5-5.156v-6.188c0 2.848-7.387 5.156-16.5 5.156z"></path>
<path d="M16.5 26.813c-9.113 0-16.5-2.309-16.5-5.156v6.188c0 2.848 7.387 5.156 16.5 5.156s16.5-2.309 16.5-5.156v-6.188c0 2.848-7.387 5.156-16.5 5.156z"></path>
</symbol>
<symbol id="icon-user" viewBox="0 0 33 33">
<path d="M18.563 22.772v-1.701c2.272-1.28 4.125-4.472 4.125-7.665 0-5.126 0-9.281-6.188-9.281s-6.188 4.155-6.188 9.281c0 3.192 1.853 6.384 4.125 7.665v1.701c-6.996 0.572-12.375 4.010-12.375 8.166h28.875c0-4.156-5.379-7.594-12.375-8.166z"></path>
</symbol>
</defs>
</svg>
